<svg id="Livello_1" data-name="Livello 1" xmlns="http://www.w3.org/2000/svg" viewBox="0 0 27.38 29.52"><defs><style>.cls-1,.cls-2{fill:none;stroke:#000;stroke-miterlimit:10;stroke-width:0.25px;}.cls-2{stroke-dasharray:2;}</style></defs><title>dynamic</title><ellipse class="cls-1" cx="8.07" cy="3.35" rx="3.5" ry="3.22"/><ellipse class="cls-1" cx="23.75" cy="12.68" rx="3.5" ry="3.22"/><ellipse class="cls-1" cx="3.63" cy="19.71" rx="3.5" ry="3.22"/><rect class="cls-1" x="2.13" y="17.77" width="3" height="3.88"/><rect class="cls-1" x="21.37" y="10.9" width="4.78" height="2.82"/><rect class="cls-1" x="5.57" y="2" width="5" height="2.69"/><polygon class="cls-1" points="26.75 13.72 20.75 13.72 20.75 13.72 26.75 13.72 26.75 13.72"/><line class="cls-1" x1="25.51" y1="9.89" x2="25.51" y2="9.89"/><path class="cls-2" d="M5.44,24.88a9.75,9.75,0,0,0,12.87,4.95" transform="translate(-1.81 -1.24)"/><path class="cls-2" d="M5.44,17.08c3.45-3.44,7.5-3.38,10.19.09,1.75,2.28,1.28,6.29,2.79,7.42C20.34,26,23.31,21.83,25.56,18" transform="translate(-1.81 -1.24)"/><path class="cls-2" d="M25.56,9.92c0-2.95-4.87-5.33-10.9-5.33" transform="translate(-1.81 -1.24)"/></svg>